Trespass.PL.2011.LIMITED.BRRip.XviD-RLF 
                                            
Complete name                    : rlf-trespass-pl.avi
Format                           : AVI
Format/Info                      : Audio Video Interleave
File size                        : 684 MiB
Duration                         : 1h 30mn
Overall bit rate                 : 1 054 Kbps
Language                         : Polish
Subs                             : English 
Encoder                          : Ralf

Video:

Format                           : MPEG-4 Visual

Format profile                   : Advanced Simple@L5
Format settings, BVOP            : 4
Format settings, QPel            : No
Format settings, GMC             : No warppoints
Format settings, Matrix          : H.263
Muxing mode                      : Packed bitstream
Codec ID                         : XVID
Duration                         : 1h 30mn
Bit rate                         : 925 Kbps
Display aspect ratio             : 2.35:1
Frame rate                       : 23.976 fps
Color space                      : YUV
Chroma subsampling               : 4:2:0
Bit depth                        : 8 bits
Bits/(Pixel*Frame)               : 0.195
Stream size                      : 600 MiB (88%)

Audio:

Format                           : MPEG Audio
Format profile                   : Layer 3
Codec ID/Hint                    : MP3
Duration                         : 1h 30mn
Bit rate mode                    : Constant
Bit rate                         : 128 Kbps
Channel(s)                       : 2 channels
Stream size                      : 77.8 MiB (11%)
Alignment                        : Split accross interleaves
Interleave, duration             : 42 ms (1.00 video frame)
Encoding settings                : -m j -V 4 -q 2 -lowpass 17 -b 128

MOVIE INFO:

W ekskluzywnej rezydencji, w pilnie strzezonej dzielnicy mieszka rodzina 
Millerow. Kyle zajmuje sie handlem diamentami, jego nieskazitelna, piekna 
zona prowadzi dom, a zbuntowana, nastoletnia corka chodzi wlasnymi drogami. 
Ich z pozoru monotonne zycie zmieni na zawsze jeden dzwonek do drzwi. 
Uzbrojeni bandyci wpadaja do domu i terroryzuja rodzine, zmuszajac Kylea do 
otworzenia sejfu. 
                                       
                                
http://www.imdb.com/title/tt1674784/ 
http://www.filmweb.pl/film/Trespass-2011-579478
                                               
SOURCE:

AMIABLE LIMITED.720p.BluRay.x264 / DVDSEED (THX GUYS)


SCREENS:
 
http://www.postimg.com/64000/photo-63518.jpg 
http://www.postimg.com/64000/photo-63519.jpg 
http://www.postimg.com/64000/photo-63520.jpg 
http://www.postimg.com/64000/photo-63521.jpg